PathFileType	4	(X/Y/Z)	Patient4_TMGait_0pt7_02_left_29.trc.trc
DataRate	CameraRate	NumFrames	NumMarkers	Units	OrigDataRate	OrigDataStartFrame	OrigNumFrames
84.337349397591	84.337349397591	6	33	mm	84.337349397591	1	       141
Frame#	Time	Sacral			L.Shoulder			Chest			R.Shoulder			Neck			R.ASIS			L.ASIS			R.Thigh.Superior			R.Thigh.Lateral			R.Thigh.Inferior			R.Patella			L.Thigh.Superior			L.Thigh.Lateral			L.Thigh.Inferior			L.Patella			L.Shank.Superior			L.Shank.Lateral			L.Shank.Inferior			R.Shank.Superior			R.Shank.Lateral			R.Shank.Inferior			R.Heel			R.Midfoot.Superior			R.Midfoot.Lateral			R.Toe			L.Heel			L.Midfoot.Lateral			L.Midfoot.Superior			L.Toe			L.Elbow			L.Wrist			R.Elbow			R.Wrist			
		X1	Y1	Z1	X2	Y2	Z2	X3	Y3	Z3	X4	Y4	Z4	X5	Y5	Z5	X6	Y6	Z6	X7	Y7	Z7	X8	Y8	Z8	X9	Y9	Z9	X10	Y10	Z10	X11	Y11	Z11	X12	Y12	Z12	X13	Y13	Z13	X14	Y14	Z14	X15	Y15	Z15	X16	Y16	Z16	X17	Y17	Z17	X18	Y18	Z18	X19	Y19	Z19	X20	Y20	Z20	X21	Y21	Z21	X22	Y22	Z22	X23	Y23	Z23	X24	Y24	Z24	X25	Y25	Z25	X26	Y26	Z26	X27	Y27	Z27	X28	Y28	Z28	X29	Y29	Z29	X30	Y30	Z30	X31	Y31	Z31	X32	Y32	Z32	X33	Y33	Z33	

1	33.060000000000	850.447305847715	1013.843522433342	516.935434567743	1052.283494800532	1423.448977024761	316.311866547954	1163.438948233973	1344.762983959270	469.183840564289	1105.067922663907	1429.240709007655	647.408044924660	1076.420154701018	1485.833719044766	468.879428681490	1079.352418129065	937.436154080873	626.206788991381	1053.142532853619	952.348531949638	353.031174809384	1128.508352586953	743.795622435480	598.562152083768	1051.414710961169	632.813300914408	655.774091752297	1130.681713091803	584.156354583379	574.018742620666	1136.255651705548	493.259354650748	579.804059771269	1134.830645896310	775.115228063696	384.549157142180	1091.034492345264	651.025395376991	303.519570166313	1195.277121146151	586.568558852820	365.081323324833	1206.635600466304	495.265609009868	357.314927317179	1135.360522509952	431.546755174600	347.310405261125	991.075535658553	401.890188283588	296.867855689582	968.397473459767	272.443378590638	347.426067886934	1104.732376037778	405.414202745195	587.510199779473	1031.795411221594	302.763812183687	649.100083610069	1070.577676562070	207.363644945570	585.264583930275	931.586691156170	44.927869063064	558.152177590955	1103.953060718438	97.564972335901	592.208056900117	1015.430826740568	37.797159590221	630.909184727059	1223.792945133811	41.757567701696	618.996919405621	773.237605916504	222.658996219951	381.821141503926	827.768639710152	175.351749252145	300.074173231857	932.540456150634	172.237635607773	322.740942075351	999.875316137194	54.627141390550	289.570267330607	1001.546249587004	1071.022450225539	214.091929817841	1176.777583056952	875.918374830703	230.672143598471	1035.789446246787	1091.956892575261	783.043354460880	1130.194329318239	846.891727978639	761.293548888270	
2	33.071857142857	849.083006511722	1014.720657667297	518.767481696196	1050.757366534288	1422.993825284964	316.385209527482	1162.738448699681	1344.645031751800	468.829056622504	1105.799164162921	1429.711185807709	647.271586251965	1076.045954341650	1485.883207551337	468.640744338683	1077.972051513918	937.469352808056	626.410268776772	1050.431580334452	953.168857868000	353.402309032080	1124.513257078774	742.798745707244	598.202905187126	1046.699364449766	632.657073324435	656.211779785328	1124.552106489397	583.222122584754	573.915228544516	1128.944054216066	492.440998211431	579.638500445230	1134.549964931564	779.795053509283	385.716119499638	1094.546185900663	655.222138978748	303.677614575737	1199.473105895371	592.888476542316	366.046545467740	1213.550268501378	502.418282506934	357.548705050465	1145.149879730132	436.612863946057	346.806464846667	1002.784087524900	400.149423564411	296.518935631296	987.222728640699	269.669874342204	345.934469433431	1097.038652424267	404.719808988680	587.465252839800	1023.916179475603	302.527429866383	649.436030400854	1062.157671411436	206.932882755902	585.268255157373	922.690975904073	44.612252776424	558.206496195116	1094.911871449524	97.334706678496	591.972678579249	1006.528758806778	37.669063592840	630.994431794265	1214.886869799742	41.910387361804	618.954009705110	796.075682493126	209.430924133025	380.903202960224	852.019868208926	166.018779255000	298.306846656468	956.660925034245	168.430838985439	320.253336762555	1029.634559680660	55.343823828372	285.431832772768	996.164938953486	1070.036493442841	217.431785091003	1150.006273276358	861.765204315438	229.620034523361	1045.133051366845	1091.774404108014	784.600009630336	1156.352404807923	857.188068382392	757.540604429431	
3	33.083714285714	847.713558505510	1015.563498789320	520.546964156107	1049.278398573242	1422.519626227890	316.439544556362	1162.056558615180	1344.490556746360	468.465721060647	1106.515140702438	1430.132956267994	647.123749187483	1075.680817172334	1485.898449912227	468.393006014412	1076.599163469009	937.470756888699	626.609445534923	1047.757493558942	953.929482447110	353.752699704399	1120.545055852523	741.805483843363	597.810268288040	1042.061166999159	632.491616255058	656.642713244062	1118.511222333653	582.288009021179	573.800789933308	1121.731733780628	491.622228507871	579.478468550523	1134.202307756381	784.323139002515	386.841006203693	1097.904350104878	659.298474953402	303.827806541445	1203.468171776430	599.042106742449	367.011876779258	1220.223357134896	509.428196976391	357.784586189726	1154.719138308549	441.589061151334	346.299323986498	1014.368503049779	398.324496148766	296.113902127615	1005.928166023295	266.902995148148	344.417696847044	1089.463178459202	404.028800914753	587.428632017644	1016.149186669048	302.279809369662	649.755537089882	1053.841377534065	206.499975058521	585.270823986521	913.896795932038	44.304841615009	558.258644358939	1085.978305255670	97.119115027700	591.755131332656	997.729019052094	37.544280500296	631.082486006786	1206.082918696119	42.061110963121	618.916283228379	818.880053828375	196.284494384067	379.885812152613	876.237350859980	156.743329448857	296.480500273732	980.677694386944	164.663745050908	317.770825349945	1059.251134693727	56.141791739756	281.366868137621	990.787076402121	1069.081042884068	220.642171260887	1123.414633334863	848.305263783741	228.584876232107	1054.388511363761	1091.590449899589	786.098250131324	1182.201041226585	867.740977262447	753.671411995755	
4	33.095571428571	846.339808368837	1016.346604231493	522.211714964524	1047.893854232516	1422.016473355937	316.449441832103	1161.413682958858	1344.266441769718	468.074931680101	1107.211710080477	1430.462650130710	646.943531715547	1075.342135322219	1485.852036352489	468.120375537142	1075.235691521774	937.419049009063	626.789233683118	1045.156940401769	954.575113744311	354.051037536994	1116.608034914571	740.811869141901	597.367498486876	1037.518260166165	632.310552661071	657.056387359204	1112.587616871775	581.346040123738	573.670103584583	1114.644547265752	490.803389271970	579.326225294119	1133.711186631334	788.543523379498	387.880539861872	1100.937406179000	663.123081567485	303.949215923701	1207.050055606622	604.850267740658	367.956063671974	1226.403424807964	516.153413764735	358.025300822666	1163.857317917320	446.390118074409	345.798979541967	1025.785255763937	396.321297648195	295.578504878058	1024.479311910066	264.164360215142	342.865933485373	1082.049622793638	403.346598217235	587.405671140545	1008.530474340439	302.014027618766	650.043294842035	1045.655795892385	206.064894525717	585.269985724164	905.226995450280	44.015368272440	558.307224941727	1077.181045789484	96.929665186997	591.569013401874	989.055939643382	37.426629606113	631.174506002013	1197.404400858255	42.207388355571	618.888246336062	841.766668055729	183.278444802738	378.646081183077	900.564340978449	147.591514072665	294.546836599362	1004.617454193233	161.014902122050	315.331354550868	1088.729036739951	57.193416868558	277.549141629430	985.331013328047	1068.235941668014	223.581996204052	1097.113486433454	836.210814055614	227.594979203944	1063.576428041099	1091.418918067138	787.439192107302	1207.495821845338	878.995243215415	749.511239902130	
5	33.107428571429	844.965473259314	1017.054534447379	523.707450632135	1046.643587249913	1421.482183306539	316.392464000291	1160.827731962528	1343.948412563554	467.637813358905	1107.890450371124	1430.667447658139	646.711300480088	1075.048805608512	1485.725918334876	467.809626207555	1073.879139513516	937.301460516490	626.933968908610	1042.660055556645	955.062794431736	354.270762955109	1112.700797109187	739.812694791888	596.870839964846	1033.066319451415	632.109525793972	657.443102002000	1106.786955912866	580.387537801611	573.523382558879	1107.682845849998	489.987052219800	579.184672256857	1133.010614009048	792.328569891611	388.803574035233	1103.502304722388	666.587195676861	304.018862325891	1210.044198932409	610.163336147466	368.852944459055	1231.885517927577	522.479563673073	358.272333603530	1172.396412664276	450.948464695659	345.323822233475	1037.032866182474	394.066365089841	294.841088181321	1042.868336186130	261.486738770688	341.282782841705	1074.809905810583	402.677852526695	587.398663589526	1001.066856933493	301.727661619375	650.290046042897	1037.599853631462	205.628968765746	585.263622401589	896.675410906912	43.752624451985	558.352015682377	1068.518568346849	96.773184991474	591.422529702048	980.505145594954	37.319313356023	631.270421560549	1188.846149290534	42.346630467441	618.871669184813	864.863769840420	170.475111911904	377.066494323453	925.170032251948	138.638652051641	292.470473782427	1028.537125255777	157.573892753747	312.989095210522	1118.110336643615	58.675800415625	274.184157835313	979.692328604206	1067.586855856801	226.132975314926	1071.205187570741	826.009674689768	226.678227413368	1072.749135119926	1091.274309350097	788.527295796247	1232.045286622634	891.365224591809	744.902664175260	
6	33.119285714286	843.598692969477	1017.683097984292	524.989652283707	1045.557693573307	1420.924056632105	316.251193692572	1160.313271377843	1343.524872276085	467.137727867667	1108.557602939598	1430.729055598427	646.410490936557	1074.819789907058	1485.514162692202	467.451303285214	1072.527111520637	937.116358444707	627.028213313992	1040.292845057713	955.366207729506	354.391280504570	1108.822427832076	738.803386645496	596.331883902550	1028.683516643787	631.887137477481	657.793413219830	1101.098201884441	579.405176209074	573.366478030509	1100.830189880424	489.179083593212	579.056382443130	1132.053840931204	795.584646325672	389.591447157483	1105.494622900592	669.608222555573	304.013125620706	1212.326534976909	614.865107936177	369.670513738837	1236.521656944387	528.318286498684	358.524764710119	1180.212034682618	455.211100550978	344.899531278640	1048.130498550019	391.518124864137	293.842760422431	1061.079707902958	258.914684482544	339.689352470833	1067.731794594837	402.027671174166	587.406290600698	993.744119949522	301.423597558663	650.492233259311	1029.655178227398	205.195704253041	585.249792343068	888.219670032742	43.523703989416	558.393814004004	1059.971292761306	96.651375507734	591.317815187350	972.055767634344	37.224791628903	631.368664094321	1180.387121864483	42.476127232343	618.865877824229	888.255923232056	157.956361483670	375.053619208825	950.186237496417	129.977487909970	290.239953526893	1052.472501214674	154.438341613085	310.814925546461	1147.414828265249	60.751644057144	271.495258650791	973.764065408401	1067.220809312878	228.207178516726	1045.818881812530	818.043430917858	225.861338304595	1081.973926858808	1091.172747418960	789.275532212809	1255.684715672174	905.175125942903	739.728927935847	
